<svg width="366" height="48" viewBox="0 0 366 48" fill="none" xmlns="http://www.w3.org/2000/svg">
<rect x="0.5" y="4" width="119" height="40" rx="8" fill="#2D3136"/>
<path fill-rule="evenodd" clip-rule="evenodd" d="M20.1464 17.6464C20.3417 17.4512 20.6583 17.4512 20.8536 17.6464L24.1869 20.9798C24.3821 21.175 24.3821 21.4916 24.1869 21.6869C23.9916 21.8821 23.675 21.8821 23.4798 21.6869L21 19.2071V26C21 26.2761 20.7761 26.5 20.5 26.5C20.2239 26.5 20 26.2761 20 26V19.2071L17.5202 21.6869C17.325 21.8821 17.0084 21.8821 16.8131 21.6869C16.6179 21.4916 16.6179 21.175 16.8131 20.9798L20.1464 17.6464ZM14.5 25.5C14.7761 25.5 15 25.7239 15 26V28.6667C15 28.8877 15.0878 29.0996 15.2441 29.2559C15.4004 29.4122 15.6123 29.5 15.8333 29.5H25.1667C25.3877 29.5 25.5996 29.4122 25.7559 29.2559C25.9122 29.0996 26 28.8877 26 28.6667V26C26 25.7239 26.2239 25.5 26.5 25.5C26.7761 25.5 27 25.7239 27 26V28.6667C27 29.1529 26.8068 29.6192 26.463 29.963C26.1192 30.3068 25.6529 30.5 25.1667 30.5H15.8333C15.3471 30.5 14.8808 30.3068 14.537 29.963C14.1932 29.6192 14 29.1529 14 28.6667V26C14 25.7239 14.2239 25.5 14.5 25.5Z" fill="#59B2FF"/>
<path d="M43.582 26.7793C43.582 27.3717 43.4362 27.8822 43.1445 28.3105C42.8574 28.7389 42.4427 29.0671 41.9004 29.2949C41.3626 29.5228 40.7201 29.6367 39.9727 29.6367C39.6081 29.6367 39.2594 29.6162 38.9268 29.5752C38.5941 29.5342 38.2796 29.4749 37.9834 29.3975C37.6917 29.3154 37.4251 29.2174 37.1836 29.1035V27.5586C37.5892 27.7363 38.0426 27.8981 38.5439 28.0439C39.0452 28.1852 39.5557 28.2559 40.0752 28.2559C40.499 28.2559 40.8499 28.2012 41.1279 28.0918C41.4105 27.9779 41.6201 27.8184 41.7568 27.6133C41.8936 27.4036 41.9619 27.1598 41.9619 26.8818C41.9619 26.5856 41.8822 26.335 41.7227 26.1299C41.5632 25.9248 41.3216 25.738 40.998 25.5693C40.679 25.3962 40.278 25.2116 39.7949 25.0156C39.4668 24.8835 39.1523 24.7331 38.8516 24.5645C38.5553 24.3958 38.291 24.1976 38.0586 23.9697C37.8262 23.7419 37.6416 23.473 37.5049 23.1631C37.3727 22.8486 37.3066 22.4795 37.3066 22.0557C37.3066 21.4906 37.4411 21.0075 37.71 20.6064C37.9834 20.2054 38.3662 19.8978 38.8584 19.6836C39.3551 19.4694 39.9339 19.3623 40.5947 19.3623C41.1188 19.3623 41.611 19.417 42.0713 19.5264C42.5361 19.6357 42.9919 19.7907 43.4385 19.9912L42.9189 21.3105C42.5088 21.1419 42.11 21.0075 41.7227 20.9072C41.3398 20.807 40.9479 20.7568 40.5469 20.7568C40.2005 20.7568 39.9066 20.8092 39.665 20.9141C39.4235 21.0189 39.2389 21.167 39.1113 21.3584C38.9883 21.5452 38.9268 21.7686 38.9268 22.0283C38.9268 22.32 38.9974 22.5661 39.1387 22.7666C39.2845 22.9626 39.5078 23.1426 39.8086 23.3066C40.1139 23.4707 40.5059 23.653 40.9844 23.8535C41.5358 24.0814 42.0029 24.3206 42.3857 24.5713C42.7731 24.8219 43.0693 25.1227 43.2744 25.4736C43.4795 25.82 43.582 26.2552 43.582 26.7793ZM48.3604 21.7891C49.0348 21.7891 49.6136 21.9281 50.0967 22.2061C50.5798 22.484 50.9512 22.8783 51.2109 23.3887C51.4707 23.8991 51.6006 24.5098 51.6006 25.2207V26.082H46.5488C46.5671 26.8158 46.763 27.3809 47.1367 27.7773C47.515 28.1738 48.0436 28.3721 48.7227 28.3721C49.2057 28.3721 49.6387 28.3265 50.0215 28.2354C50.4089 28.1396 50.8076 28.0007 51.2178 27.8184V29.124C50.8395 29.3018 50.4544 29.4316 50.0625 29.5137C49.6706 29.5957 49.2012 29.6367 48.6543 29.6367C47.9115 29.6367 47.2575 29.4932 46.6924 29.2061C46.1318 28.9144 45.6921 28.4814 45.373 27.9072C45.0586 27.333 44.9014 26.6198 44.9014 25.7676C44.9014 24.9199 45.0449 24.1999 45.332 23.6074C45.6191 23.015 46.0225 22.5638 46.542 22.2539C47.0615 21.944 47.6676 21.7891 48.3604 21.7891ZM48.3604 22.999C47.8545 22.999 47.4443 23.1631 47.1299 23.4912C46.82 23.8193 46.6377 24.3001 46.583 24.9336H50.0283C50.0238 24.5553 49.96 24.2204 49.8369 23.9287C49.7184 23.637 49.5361 23.4092 49.29 23.2451C49.0485 23.0811 48.7386 22.999 48.3604 22.999ZM55.0254 29.5H53.4121V18.8633H55.0254V29.5ZM60.3369 21.7891C61.0114 21.7891 61.5902 21.9281 62.0732 22.2061C62.5563 22.484 62.9277 22.8783 63.1875 23.3887C63.4473 23.8991 63.5771 24.5098 63.5771 25.2207V26.082H58.5254C58.5436 26.8158 58.7396 27.3809 59.1133 27.7773C59.4915 28.1738 60.0202 28.3721 60.6992 28.3721C61.1823 28.3721 61.6152 28.3265 61.998 28.2354C62.3854 28.1396 62.7842 28.0007 63.1943 27.8184V29.124C62.8161 29.3018 62.431 29.4316 62.0391 29.5137C61.6471 29.5957 61.1777 29.6367 60.6309 29.6367C59.888 29.6367 59.234 29.4932 58.6689 29.2061C58.1084 28.9144 57.6686 28.4814 57.3496 27.9072C57.0352 27.333 56.8779 26.6198 56.8779 25.7676C56.8779 24.9199 57.0215 24.1999 57.3086 23.6074C57.5957 23.015 57.999 22.5638 58.5186 22.2539C59.0381 21.944 59.6442 21.7891 60.3369 21.7891ZM60.3369 22.999C59.8311 22.999 59.4209 23.1631 59.1064 23.4912C58.7965 23.8193 58.6143 24.3001 58.5596 24.9336H62.0049C62.0003 24.5553 61.9365 24.2204 61.8135 23.9287C61.695 23.637 61.5127 23.4092 61.2666 23.2451C61.0251 23.0811 60.7152 22.999 60.3369 22.999ZM68.4375 29.6367C67.722 29.6367 67.1022 29.4977 66.5781 29.2197C66.054 28.9417 65.6507 28.5156 65.3682 27.9414C65.0856 27.3672 64.9443 26.638 64.9443 25.7539C64.9443 24.8333 65.0993 24.0814 65.4092 23.498C65.7191 22.9147 66.1475 22.484 66.6943 22.2061C67.2458 21.9281 67.877 21.7891 68.5879 21.7891C69.0391 21.7891 69.4469 21.8346 69.8115 21.9258C70.1807 22.0124 70.4928 22.1195 70.748 22.2471L70.2695 23.5322C69.9915 23.4183 69.7067 23.3226 69.415 23.2451C69.1234 23.1676 68.8431 23.1289 68.5742 23.1289C68.1322 23.1289 67.763 23.2269 67.4668 23.4229C67.1751 23.6188 66.9564 23.9105 66.8105 24.2979C66.6693 24.6852 66.5986 25.166 66.5986 25.7402C66.5986 26.2962 66.6715 26.7656 66.8174 27.1484C66.9632 27.5267 67.1797 27.8138 67.4668 28.0098C67.7539 28.2012 68.1071 28.2969 68.5264 28.2969C68.9411 28.2969 69.3125 28.2467 69.6406 28.1465C69.9688 28.0462 70.2786 27.9163 70.5703 27.7568V29.1514C70.2832 29.3154 69.9756 29.4362 69.6475 29.5137C69.3193 29.5957 68.916 29.6367 68.4375 29.6367ZM73.9541 21.9326V29.5H72.3477V21.9326H73.9541ZM73.1611 19.0342C73.4072 19.0342 73.6191 19.1003 73.7969 19.2324C73.9792 19.3646 74.0703 19.5924 74.0703 19.916C74.0703 20.235 73.9792 20.4629 73.7969 20.5996C73.6191 20.7318 73.4072 20.7979 73.1611 20.7979C72.9059 20.7979 72.6895 20.7318 72.5117 20.5996C72.3385 20.4629 72.252 20.235 72.252 19.916C72.252 19.5924 72.3385 19.3646 72.5117 19.2324C72.6895 19.1003 72.9059 19.0342 73.1611 19.0342ZM82.957 25.6992C82.957 26.3281 82.875 26.8864 82.7109 27.374C82.5469 27.8617 82.3076 28.2741 81.9932 28.6113C81.6787 28.944 81.3005 29.1992 80.8584 29.377C80.4163 29.5501 79.9173 29.6367 79.3613 29.6367C78.8418 29.6367 78.3656 29.5501 77.9326 29.377C77.4997 29.1992 77.1237 28.944 76.8047 28.6113C76.4902 28.2741 76.2464 27.8617 76.0732 27.374C75.9001 26.8864 75.8135 26.3281 75.8135 25.6992C75.8135 24.8652 75.957 24.1589 76.2441 23.5801C76.5358 22.9967 76.9505 22.5524 77.4883 22.2471C78.026 21.9417 78.6663 21.7891 79.4092 21.7891C80.1064 21.7891 80.7217 21.9417 81.2549 22.2471C81.7881 22.5524 82.2051 22.9967 82.5059 23.5801C82.8066 24.1634 82.957 24.8698 82.957 25.6992ZM77.4678 25.6992C77.4678 26.2507 77.5339 26.7223 77.666 27.1143C77.8027 27.5062 78.0124 27.807 78.2949 28.0166C78.5775 28.2217 78.9421 28.3242 79.3887 28.3242C79.8353 28.3242 80.1999 28.2217 80.4824 28.0166C80.765 27.807 80.9723 27.5062 81.1045 27.1143C81.2367 26.7223 81.3027 26.2507 81.3027 25.6992C81.3027 25.1478 81.2367 24.6807 81.1045 24.2979C80.9723 23.9105 80.765 23.6165 80.4824 23.416C80.1999 23.2109 79.833 23.1084 79.3818 23.1084C78.7165 23.1084 78.2311 23.3317 77.9258 23.7783C77.6204 24.2249 77.4678 24.8652 77.4678 25.6992ZM88.7471 21.7891C89.5993 21.7891 90.2624 22.0101 90.7363 22.4521C91.2148 22.8896 91.4541 23.5938 91.4541 24.5645V29.5H89.8477V24.8652C89.8477 24.2773 89.7269 23.8376 89.4854 23.5459C89.2438 23.2497 88.8701 23.1016 88.3643 23.1016C87.6305 23.1016 87.1201 23.3271 86.833 23.7783C86.5505 24.2295 86.4092 24.8835 86.4092 25.7402V29.5H84.8027V21.9326H86.0537L86.2793 22.958H86.3682C86.5322 22.6937 86.735 22.4772 86.9766 22.3086C87.2227 22.1354 87.4961 22.0055 87.7969 21.9189C88.1022 21.8324 88.4189 21.7891 88.7471 21.7891ZM96.6699 21.7891C97.627 21.7891 98.3493 22.001 98.8369 22.4248C99.3291 22.8486 99.5752 23.5094 99.5752 24.4072V29.5H98.4336L98.126 28.4268H98.0713C97.8571 28.7002 97.6361 28.9258 97.4082 29.1035C97.1803 29.2812 96.916 29.4134 96.6152 29.5C96.319 29.5911 95.9567 29.6367 95.5283 29.6367C95.0771 29.6367 94.6738 29.5547 94.3184 29.3906C93.9629 29.222 93.6826 28.9668 93.4775 28.625C93.2725 28.2832 93.1699 27.8503 93.1699 27.3262C93.1699 26.5469 93.4593 25.9613 94.0381 25.5693C94.6214 25.1774 95.501 24.9609 96.6768 24.9199L97.9893 24.8721V24.4756C97.9893 23.9515 97.8662 23.5778 97.6201 23.3545C97.3786 23.1312 97.0368 23.0195 96.5947 23.0195C96.2165 23.0195 95.8496 23.0742 95.4941 23.1836C95.1387 23.293 94.7923 23.4274 94.4551 23.5869L93.9355 22.4521C94.3047 22.2562 94.724 22.0967 95.1934 21.9736C95.6673 21.8506 96.1595 21.7891 96.6699 21.7891ZM97.9824 25.8838L97.0049 25.918C96.2028 25.9453 95.64 26.082 95.3164 26.3281C94.9928 26.5742 94.8311 26.9115 94.8311 27.3398C94.8311 27.7135 94.9427 27.987 95.166 28.1602C95.3893 28.3288 95.6833 28.4131 96.0479 28.4131C96.6038 28.4131 97.0641 28.2559 97.4287 27.9414C97.7979 27.6224 97.9824 27.1553 97.9824 26.54V25.8838ZM105.659 21.7891C105.787 21.7891 105.926 21.7959 106.076 21.8096C106.227 21.8232 106.356 21.8415 106.466 21.8643L106.315 23.3682C106.22 23.3408 106.101 23.3203 105.96 23.3066C105.823 23.293 105.7 23.2861 105.591 23.2861C105.304 23.2861 105.03 23.334 104.771 23.4297C104.511 23.5208 104.281 23.6621 104.08 23.8535C103.88 24.0404 103.722 24.2751 103.608 24.5576C103.494 24.8402 103.438 25.1683 103.438 25.542V29.5H101.824V21.9326H103.082L103.301 23.2656H103.376C103.526 22.9967 103.713 22.7507 103.937 22.5273C104.16 22.304 104.415 22.1263 104.702 21.9941C104.994 21.8574 105.313 21.7891 105.659 21.7891Z" fill="#F9F9F9"/>
<path d="M141.992 30H140.461L134.234 20.4062H134.172C134.188 20.6615 134.206 20.9531 134.227 21.2812C134.247 21.6042 134.263 21.9505 134.273 22.3203C134.289 22.6849 134.297 23.0573 134.297 23.4375V30H133.062V18.5781H134.586L140.789 28.1406H140.844C140.833 27.9583 140.82 27.7005 140.805 27.3672C140.789 27.0286 140.773 26.6667 140.758 26.2812C140.747 25.8906 140.742 25.5286 140.742 25.1953V18.5781H141.992V30ZM148.211 21.2812C148.94 21.2812 149.565 21.4427 150.086 21.7656C150.607 22.0885 151.005 22.5417 151.281 23.125C151.557 23.7031 151.695 24.3802 151.695 25.1562V25.9609H145.781C145.797 26.9661 146.047 27.7318 146.531 28.2578C147.016 28.7839 147.698 29.0469 148.578 29.0469C149.12 29.0469 149.599 28.9974 150.016 28.8984C150.432 28.7995 150.865 28.6536 151.312 28.4609V29.6016C150.88 29.7943 150.451 29.9349 150.023 30.0234C149.602 30.112 149.102 30.1562 148.523 30.1562C147.701 30.1562 146.982 29.9896 146.367 29.6562C145.758 29.3177 145.284 28.8229 144.945 28.1719C144.607 27.5208 144.438 26.724 144.438 25.7812C144.438 24.8594 144.591 24.0625 144.898 23.3906C145.211 22.7135 145.648 22.1927 146.211 21.8281C146.779 21.4635 147.445 21.2812 148.211 21.2812ZM148.195 22.3438C147.503 22.3438 146.951 22.5703 146.539 23.0234C146.128 23.4766 145.883 24.1094 145.805 24.9219H150.336C150.331 24.4115 150.25 23.9635 150.094 23.5781C149.943 23.1875 149.711 22.8854 149.398 22.6719C149.086 22.4531 148.685 22.3438 148.195 22.3438ZM157.953 21.2812C158.969 21.2812 159.737 21.5312 160.258 22.0312C160.779 22.526 161.039 23.3229 161.039 24.4219V30H159.758V24.5078C159.758 23.7943 159.594 23.2604 159.266 22.9062C158.943 22.5521 158.445 22.375 157.773 22.375C156.826 22.375 156.159 22.6432 155.773 23.1797C155.388 23.7161 155.195 24.4948 155.195 25.5156V30H153.898V21.4375H154.945L155.141 22.6719H155.211C155.393 22.3698 155.625 22.1172 155.906 21.9141C156.188 21.7057 156.503 21.5495 156.852 21.4453C157.201 21.3359 157.568 21.2812 157.953 21.2812ZM165.008 17.8438V21.4766C165.008 21.6849 165.003 21.8958 164.992 22.1094C164.982 22.3177 164.964 22.5104 164.938 22.6875H165.023C165.201 22.3854 165.424 22.1328 165.695 21.9297C165.971 21.7214 166.284 21.5651 166.633 21.4609C166.982 21.3516 167.352 21.2969 167.742 21.2969C168.43 21.2969 169.003 21.4062 169.461 21.625C169.924 21.8438 170.271 22.1823 170.5 22.6406C170.734 23.099 170.852 23.6927 170.852 24.4219V30H169.57V24.5078C169.57 23.7943 169.406 23.2604 169.078 22.9062C168.755 22.5521 168.258 22.375 167.586 22.375C166.951 22.375 166.443 22.4974 166.062 22.7422C165.688 22.9818 165.417 23.3359 165.25 23.8047C165.089 24.2734 165.008 24.8464 165.008 25.5234V30H163.711V17.8438H165.008ZM180.594 21.4375V30H179.531L179.344 28.7969H179.273C179.096 29.0938 178.867 29.3438 178.586 29.5469C178.305 29.75 177.987 29.901 177.633 30C177.284 30.1042 176.911 30.1562 176.516 30.1562C175.839 30.1562 175.271 30.0469 174.812 29.8281C174.354 29.6094 174.008 29.2708 173.773 28.8125C173.544 28.3542 173.43 27.7656 173.43 27.0469V21.4375H174.742V26.9531C174.742 27.6667 174.904 28.2005 175.227 28.5547C175.549 28.9036 176.042 29.0781 176.703 29.0781C177.339 29.0781 177.844 28.9583 178.219 28.7188C178.599 28.4792 178.872 28.1276 179.039 27.6641C179.206 27.1953 179.289 26.6224 179.289 25.9453V21.4375H180.594ZM192.633 21.2812C193.576 21.2812 194.286 21.5286 194.766 22.0234C195.245 22.513 195.484 23.3021 195.484 24.3906V30H194.203V24.4531C194.203 23.7604 194.052 23.2422 193.75 22.8984C193.453 22.5495 193.01 22.375 192.422 22.375C191.594 22.375 190.992 22.6146 190.617 23.0938C190.242 23.5729 190.055 24.2786 190.055 25.2109V30H188.766V24.4531C188.766 23.9896 188.698 23.6042 188.562 23.2969C188.432 22.9896 188.234 22.7604 187.969 22.6094C187.708 22.4531 187.378 22.375 186.977 22.375C186.409 22.375 185.953 22.4922 185.609 22.7266C185.266 22.9609 185.016 23.3099 184.859 23.7734C184.708 24.2318 184.633 24.7969 184.633 25.4688V30H183.336V21.4375H184.383L184.578 22.6484H184.648C184.82 22.3516 185.036 22.1016 185.297 21.8984C185.557 21.6953 185.849 21.5417 186.172 21.4375C186.495 21.3333 186.839 21.2812 187.203 21.2812C187.854 21.2812 188.398 21.4036 188.836 21.6484C189.279 21.888 189.599 22.2552 189.797 22.75H189.867C190.148 22.2552 190.534 21.888 191.023 21.6484C191.513 21.4036 192.049 21.2812 192.633 21.2812ZM205.508 21.2969C206.529 21.2969 207.286 21.526 207.781 21.9844C208.276 22.4427 208.523 23.1745 208.523 24.1797V30H207.578L207.328 28.7344H207.266C207.026 29.0469 206.776 29.3099 206.516 29.5234C206.255 29.7318 205.953 29.8906 205.609 30C205.271 30.1042 204.854 30.1562 204.359 30.1562C203.839 30.1562 203.375 30.0651 202.969 29.8828C202.568 29.7005 202.25 29.4245 202.016 29.0547C201.786 28.6849 201.672 28.2161 201.672 27.6484C201.672 26.7943 202.01 26.138 202.688 25.6797C203.365 25.2214 204.396 24.9714 205.781 24.9297L207.258 24.8672V24.3438C207.258 23.6042 207.099 23.0859 206.781 22.7891C206.464 22.4922 206.016 22.3438 205.438 22.3438C204.99 22.3438 204.562 22.4089 204.156 22.5391C203.75 22.6693 203.365 22.8229 203 23L202.602 22.0156C202.987 21.8177 203.43 21.6484 203.93 21.5078C204.43 21.3672 204.956 21.2969 205.508 21.2969ZM207.242 25.7812L205.938 25.8359C204.87 25.8776 204.117 26.0521 203.68 26.3594C203.242 26.6667 203.023 27.1016 203.023 27.6641C203.023 28.1536 203.172 28.5156 203.469 28.75C203.766 28.9844 204.159 29.1016 204.648 29.1016C205.409 29.1016 206.031 28.8906 206.516 28.4688C207 28.0469 207.242 27.4141 207.242 26.5703V25.7812ZM215.086 21.2812C215.258 21.2812 215.438 21.2917 215.625 21.3125C215.812 21.3281 215.979 21.3516 216.125 21.3828L215.961 22.5859C215.82 22.5495 215.664 22.5208 215.492 22.5C215.32 22.4792 215.159 22.4688 215.008 22.4688C214.664 22.4688 214.339 22.5391 214.031 22.6797C213.729 22.8151 213.464 23.013 213.234 23.2734C213.005 23.5286 212.826 23.8385 212.695 24.2031C212.565 24.5625 212.5 24.9635 212.5 25.4062V30H211.195V21.4375H212.273L212.414 23.0156H212.469C212.646 22.6979 212.859 22.4089 213.109 22.1484C213.359 21.8828 213.648 21.6719 213.977 21.5156C214.31 21.3594 214.68 21.2812 215.086 21.2812ZM223.484 33.8281V30.1562C223.484 29.9531 223.49 29.7188 223.5 29.4531C223.51 29.1875 223.529 28.9583 223.555 28.7656H223.469C223.229 29.1615 222.888 29.4922 222.445 29.7578C222.003 30.0234 221.432 30.1562 220.734 30.1562C219.688 30.1562 218.846 29.7865 218.211 29.0469C217.576 28.3073 217.258 27.2031 217.258 25.7344C217.258 24.7708 217.404 23.9583 217.695 23.2969C217.987 22.6354 218.398 22.1354 218.93 21.7969C219.466 21.4531 220.091 21.2812 220.805 21.2812C221.487 21.2812 222.044 21.4167 222.477 21.6875C222.909 21.9531 223.247 22.2786 223.492 22.6641H223.555L223.75 21.4375H224.781V33.8281H223.484ZM220.977 29.0781C221.581 29.0781 222.065 28.9661 222.43 28.7422C222.794 28.513 223.06 28.1693 223.227 27.7109C223.398 27.2526 223.49 26.6823 223.5 26V25.7266C223.5 24.6224 223.312 23.7865 222.938 23.2188C222.562 22.6458 221.909 22.3594 220.977 22.3594C220.174 22.3594 219.578 22.6667 219.188 23.2812C218.797 23.8906 218.602 24.7188 218.602 25.7656C218.602 26.8125 218.797 27.6276 219.188 28.2109C219.578 28.7891 220.174 29.0781 220.977 29.0781ZM234.609 21.4375V30H233.547L233.359 28.7969H233.289C233.112 29.0938 232.883 29.3438 232.602 29.5469C232.32 29.75 232.003 29.901 231.648 30C231.299 30.1042 230.927 30.1562 230.531 30.1562C229.854 30.1562 229.286 30.0469 228.828 29.8281C228.37 29.6094 228.023 29.2708 227.789 28.8125C227.56 28.3542 227.445 27.7656 227.445 27.0469V21.4375H228.758V26.9531C228.758 27.6667 228.919 28.2005 229.242 28.5547C229.565 28.9036 230.057 29.0781 230.719 29.0781C231.354 29.0781 231.859 28.9583 232.234 28.7188C232.615 28.4792 232.888 28.1276 233.055 27.6641C233.221 27.1953 233.305 26.6224 233.305 25.9453V21.4375H234.609ZM238.648 21.4375V30H237.352V21.4375H238.648ZM238.016 18.2344C238.229 18.2344 238.411 18.3047 238.562 18.4453C238.719 18.5807 238.797 18.7943 238.797 19.0859C238.797 19.3724 238.719 19.5859 238.562 19.7266C238.411 19.8672 238.229 19.9375 238.016 19.9375C237.792 19.9375 237.604 19.8672 237.453 19.7266C237.307 19.5859 237.234 19.3724 237.234 19.0859C237.234 18.7943 237.307 18.5807 237.453 18.4453C237.604 18.3047 237.792 18.2344 238.016 18.2344ZM243.281 30L240.031 21.4375H241.422L243.305 26.6172C243.435 26.9714 243.568 27.362 243.703 27.7891C243.839 28.2161 243.932 28.5599 243.984 28.8203H244.039C244.102 28.5599 244.206 28.2161 244.352 27.7891C244.497 27.3568 244.63 26.9661 244.75 26.6172L246.633 21.4375H248.023L244.766 30H243.281ZM256.781 25.7031C256.781 26.4062 256.69 27.0339 256.508 27.5859C256.326 28.138 256.062 28.6042 255.719 28.9844C255.375 29.3646 254.958 29.6562 254.469 29.8594C253.984 30.0573 253.435 30.1562 252.82 30.1562C252.247 30.1562 251.721 30.0573 251.242 29.8594C250.768 29.6562 250.357 29.3646 250.008 28.9844C249.664 28.6042 249.396 28.138 249.203 27.5859C249.016 27.0339 248.922 26.4062 248.922 25.7031C248.922 24.7656 249.081 23.9688 249.398 23.3125C249.716 22.651 250.169 22.1484 250.758 21.8047C251.352 21.4557 252.057 21.2812 252.875 21.2812C253.656 21.2812 254.339 21.4557 254.922 21.8047C255.51 22.1536 255.966 22.6589 256.289 23.3203C256.617 23.9766 256.781 24.7708 256.781 25.7031ZM250.266 25.7031C250.266 26.3906 250.357 26.987 250.539 27.4922C250.721 27.9974 251.003 28.388 251.383 28.6641C251.763 28.9401 252.253 29.0781 252.852 29.0781C253.445 29.0781 253.932 28.9401 254.312 28.6641C254.698 28.388 254.982 27.9974 255.164 27.4922C255.346 26.987 255.438 26.3906 255.438 25.7031C255.438 25.0208 255.346 24.4323 255.164 23.9375C254.982 23.4375 254.701 23.0521 254.32 22.7812C253.94 22.5104 253.448 22.375 252.844 22.375C251.953 22.375 251.299 22.6693 250.883 23.2578C250.471 23.8464 250.266 24.6615 250.266 25.7031ZM268.719 27.6562C268.719 28.2031 268.581 28.6641 268.305 29.0391C268.034 29.4089 267.643 29.6875 267.133 29.875C266.628 30.0625 266.023 30.1562 265.32 30.1562C264.721 30.1562 264.203 30.1094 263.766 30.0156C263.328 29.9219 262.945 29.7891 262.617 29.6172V28.4219C262.966 28.5938 263.383 28.75 263.867 28.8906C264.352 29.0312 264.846 29.1016 265.352 29.1016C266.091 29.1016 266.628 28.9818 266.961 28.7422C267.294 28.5026 267.461 28.1771 267.461 27.7656C267.461 27.5312 267.393 27.3255 267.258 27.1484C267.128 26.9661 266.906 26.7917 266.594 26.625C266.281 26.4531 265.849 26.2656 265.297 26.0625C264.75 25.8542 264.276 25.6484 263.875 25.4453C263.479 25.237 263.172 24.9844 262.953 24.6875C262.74 24.3906 262.633 24.0052 262.633 23.5312C262.633 22.8073 262.924 22.2526 263.508 21.8672C264.096 21.4766 264.867 21.2812 265.82 21.2812C266.336 21.2812 266.818 21.3333 267.266 21.4375C267.719 21.5365 268.141 21.6719 268.531 21.8438L268.094 22.8828C267.74 22.7318 267.362 22.6042 266.961 22.5C266.56 22.3958 266.151 22.3438 265.734 22.3438C265.135 22.3438 264.674 22.4427 264.352 22.6406C264.034 22.8385 263.875 23.1094 263.875 23.4531C263.875 23.7188 263.948 23.9375 264.094 24.1094C264.245 24.2812 264.484 24.4427 264.812 24.5938C265.141 24.7448 265.573 24.9219 266.109 25.125C266.646 25.3229 267.109 25.5286 267.5 25.7422C267.891 25.9505 268.19 26.2057 268.398 26.5078C268.612 26.8047 268.719 27.1875 268.719 27.6562ZM274.102 21.2812C274.831 21.2812 275.456 21.4427 275.977 21.7656C276.497 22.0885 276.896 22.5417 277.172 23.125C277.448 23.7031 277.586 24.3802 277.586 25.1562V25.9609H271.672C271.688 26.9661 271.938 27.7318 272.422 28.2578C272.906 28.7839 273.589 29.0469 274.469 29.0469C275.01 29.0469 275.49 28.9974 275.906 28.8984C276.323 28.7995 276.755 28.6536 277.203 28.4609V29.6016C276.771 29.7943 276.341 29.9349 275.914 30.0234C275.492 30.112 274.992 30.1562 274.414 30.1562C273.591 30.1562 272.872 29.9896 272.258 29.6562C271.648 29.3177 271.174 28.8229 270.836 28.1719C270.497 27.5208 270.328 26.724 270.328 25.7812C270.328 24.8594 270.482 24.0625 270.789 23.3906C271.102 22.7135 271.539 22.1927 272.102 21.8281C272.669 21.4635 273.336 21.2812 274.102 21.2812ZM274.086 22.3438C273.393 22.3438 272.841 22.5703 272.43 23.0234C272.018 23.4766 271.773 24.1094 271.695 24.9219H276.227C276.221 24.4115 276.141 23.9635 275.984 23.5781C275.833 23.1875 275.602 22.8854 275.289 22.6719C274.977 22.4531 274.576 22.3438 274.086 22.3438ZM281.094 30H279.789V17.8438H281.094V30ZM287.133 21.2812C287.862 21.2812 288.487 21.4427 289.008 21.7656C289.529 22.0885 289.927 22.5417 290.203 23.125C290.479 23.7031 290.617 24.3802 290.617 25.1562V25.9609H284.703C284.719 26.9661 284.969 27.7318 285.453 28.2578C285.938 28.7839 286.62 29.0469 287.5 29.0469C288.042 29.0469 288.521 28.9974 288.938 28.8984C289.354 28.7995 289.786 28.6536 290.234 28.4609V29.6016C289.802 29.7943 289.372 29.9349 288.945 30.0234C288.523 30.112 288.023 30.1562 287.445 30.1562C286.622 30.1562 285.904 29.9896 285.289 29.6562C284.68 29.3177 284.206 28.8229 283.867 28.1719C283.529 27.5208 283.359 26.724 283.359 25.7812C283.359 24.8594 283.513 24.0625 283.82 23.3906C284.133 22.7135 284.57 22.1927 285.133 21.8281C285.701 21.4635 286.367 21.2812 287.133 21.2812ZM287.117 22.3438C286.424 22.3438 285.872 22.5703 285.461 23.0234C285.049 23.4766 284.805 24.1094 284.727 24.9219H289.258C289.253 24.4115 289.172 23.9635 289.016 23.5781C288.865 23.1875 288.633 22.8854 288.32 22.6719C288.008 22.4531 287.607 22.3438 287.117 22.3438ZM296.25 30.1562C295.479 30.1562 294.799 29.9974 294.211 29.6797C293.622 29.362 293.164 28.8776 292.836 28.2266C292.508 27.5755 292.344 26.7552 292.344 25.7656C292.344 24.7292 292.516 23.8828 292.859 23.2266C293.208 22.5651 293.688 22.0755 294.297 21.7578C294.906 21.4401 295.599 21.2812 296.375 21.2812C296.802 21.2812 297.214 21.3255 297.609 21.4141C298.01 21.4974 298.339 21.6042 298.594 21.7344L298.203 22.8203C297.943 22.7161 297.641 22.6224 297.297 22.5391C296.958 22.4557 296.641 22.4141 296.344 22.4141C295.75 22.4141 295.255 22.5417 294.859 22.7969C294.469 23.0521 294.174 23.4271 293.977 23.9219C293.784 24.4167 293.688 25.026 293.688 25.75C293.688 26.4427 293.781 27.0339 293.969 27.5234C294.161 28.013 294.445 28.388 294.82 28.6484C295.201 28.9036 295.674 29.0312 296.242 29.0312C296.695 29.0312 297.104 28.9844 297.469 28.8906C297.833 28.7917 298.164 28.6771 298.461 28.5469V29.7031C298.174 29.849 297.854 29.9609 297.5 30.0391C297.151 30.1172 296.734 30.1562 296.25 30.1562ZM301.789 21.4375V30H300.492V21.4375H301.789ZM301.156 18.2344C301.37 18.2344 301.552 18.3047 301.703 18.4453C301.859 18.5807 301.938 18.7943 301.938 19.0859C301.938 19.3724 301.859 19.5859 301.703 19.7266C301.552 19.8672 301.37 19.9375 301.156 19.9375C300.932 19.9375 300.745 19.8672 300.594 19.7266C300.448 19.5859 300.375 19.3724 300.375 19.0859C300.375 18.7943 300.448 18.5807 300.594 18.4453C300.745 18.3047 300.932 18.2344 301.156 18.2344ZM311.922 25.7031C311.922 26.4062 311.831 27.0339 311.648 27.5859C311.466 28.138 311.203 28.6042 310.859 28.9844C310.516 29.3646 310.099 29.6562 309.609 29.8594C309.125 30.0573 308.576 30.1562 307.961 30.1562C307.388 30.1562 306.862 30.0573 306.383 29.8594C305.909 29.6562 305.497 29.3646 305.148 28.9844C304.805 28.6042 304.536 28.138 304.344 27.5859C304.156 27.0339 304.062 26.4062 304.062 25.7031C304.062 24.7656 304.221 23.9688 304.539 23.3125C304.857 22.651 305.31 22.1484 305.898 21.8047C306.492 21.4557 307.198 21.2812 308.016 21.2812C308.797 21.2812 309.479 21.4557 310.062 21.8047C310.651 22.1536 311.107 22.6589 311.43 23.3203C311.758 23.9766 311.922 24.7708 311.922 25.7031ZM305.406 25.7031C305.406 26.3906 305.497 26.987 305.68 27.4922C305.862 27.9974 306.143 28.388 306.523 28.6641C306.904 28.9401 307.393 29.0781 307.992 29.0781C308.586 29.0781 309.073 28.9401 309.453 28.6641C309.839 28.388 310.122 27.9974 310.305 27.4922C310.487 26.987 310.578 26.3906 310.578 25.7031C310.578 25.0208 310.487 24.4323 310.305 23.9375C310.122 23.4375 309.841 23.0521 309.461 22.7812C309.081 22.5104 308.589 22.375 307.984 22.375C307.094 22.375 306.44 22.6693 306.023 23.2578C305.612 23.8464 305.406 24.6615 305.406 25.7031ZM318.219 21.2812C319.234 21.2812 320.003 21.5312 320.523 22.0312C321.044 22.526 321.305 23.3229 321.305 24.4219V30H320.023V24.5078C320.023 23.7943 319.859 23.2604 319.531 22.9062C319.208 22.5521 318.711 22.375 318.039 22.375C317.091 22.375 316.424 22.6432 316.039 23.1797C315.654 23.7161 315.461 24.4948 315.461 25.5156V30H314.164V21.4375H315.211L315.406 22.6719H315.477C315.659 22.3698 315.891 22.1172 316.172 21.9141C316.453 21.7057 316.768 21.5495 317.117 21.4453C317.466 21.3359 317.833 21.2812 318.219 21.2812ZM327.18 21.2969C328.201 21.2969 328.958 21.526 329.453 21.9844C329.948 22.4427 330.195 23.1745 330.195 24.1797V30H329.25L329 28.7344H328.938C328.698 29.0469 328.448 29.3099 328.188 29.5234C327.927 29.7318 327.625 29.8906 327.281 30C326.943 30.1042 326.526 30.1562 326.031 30.1562C325.51 30.1562 325.047 30.0651 324.641 29.8828C324.24 29.7005 323.922 29.4245 323.688 29.0547C323.458 28.6849 323.344 28.2161 323.344 27.6484C323.344 26.7943 323.682 26.138 324.359 25.6797C325.036 25.2214 326.068 24.9714 327.453 24.9297L328.93 24.8672V24.3438C328.93 23.6042 328.771 23.0859 328.453 22.7891C328.135 22.4922 327.688 22.3438 327.109 22.3438C326.661 22.3438 326.234 22.4089 325.828 22.5391C325.422 22.6693 325.036 22.8229 324.672 23L324.273 22.0156C324.659 21.8177 325.102 21.6484 325.602 21.5078C326.102 21.3672 326.628 21.2969 327.18 21.2969ZM328.914 25.7812L327.609 25.8359C326.542 25.8776 325.789 26.0521 325.352 26.3594C324.914 26.6667 324.695 27.1016 324.695 27.6641C324.695 28.1536 324.844 28.5156 325.141 28.75C325.438 28.9844 325.831 29.1016 326.32 29.1016C327.081 29.1016 327.703 28.8906 328.188 28.4688C328.672 28.0469 328.914 27.4141 328.914 26.5703V25.7812ZM335.914 30.1562C334.831 30.1562 333.971 29.7865 333.336 29.0469C332.706 28.3073 332.391 27.2083 332.391 25.75C332.391 24.276 332.714 23.1641 333.359 22.4141C334.005 21.6589 334.865 21.2812 335.938 21.2812C336.391 21.2812 336.786 21.3411 337.125 21.4609C337.464 21.5807 337.755 21.7422 338 21.9453C338.245 22.1432 338.451 22.3698 338.617 22.625H338.711C338.69 22.4635 338.669 22.2422 338.648 21.9609C338.628 21.6797 338.617 21.4505 338.617 21.2734V17.8438H339.914V30H338.867L338.672 28.7812H338.617C338.456 29.0365 338.25 29.2682 338 29.4766C337.755 29.6849 337.461 29.8516 337.117 29.9766C336.779 30.0964 336.378 30.1562 335.914 30.1562ZM336.117 29.0781C337.034 29.0781 337.682 28.8177 338.062 28.2969C338.443 27.776 338.633 27.0026 338.633 25.9766V25.7422C338.633 24.6536 338.451 23.8177 338.086 23.2344C337.727 22.651 337.07 22.3594 336.117 22.3594C335.32 22.3594 334.724 22.6667 334.328 23.2812C333.932 23.8906 333.734 24.724 333.734 25.7812C333.734 26.8333 333.93 27.6458 334.32 28.2188C334.716 28.7917 335.315 29.0781 336.117 29.0781ZM350.047 25.7031C350.047 26.4062 349.956 27.0339 349.773 27.5859C349.591 28.138 349.328 28.6042 348.984 28.9844C348.641 29.3646 348.224 29.6562 347.734 29.8594C347.25 30.0573 346.701 30.1562 346.086 30.1562C345.513 30.1562 344.987 30.0573 344.508 29.8594C344.034 29.6562 343.622 29.3646 343.273 28.9844C342.93 28.6042 342.661 28.138 342.469 27.5859C342.281 27.0339 342.188 26.4062 342.188 25.7031C342.188 24.7656 342.346 23.9688 342.664 23.3125C342.982 22.651 343.435 22.1484 344.023 21.8047C344.617 21.4557 345.323 21.2812 346.141 21.2812C346.922 21.2812 347.604 21.4557 348.188 21.8047C348.776 22.1536 349.232 22.6589 349.555 23.3203C349.883 23.9766 350.047 24.7708 350.047 25.7031ZM343.531 25.7031C343.531 26.3906 343.622 26.987 343.805 27.4922C343.987 27.9974 344.268 28.388 344.648 28.6641C345.029 28.9401 345.518 29.0781 346.117 29.0781C346.711 29.0781 347.198 28.9401 347.578 28.6641C347.964 28.388 348.247 27.9974 348.43 27.4922C348.612 26.987 348.703 26.3906 348.703 25.7031C348.703 25.0208 348.612 24.4323 348.43 23.9375C348.247 23.4375 347.966 23.0521 347.586 22.7812C347.206 22.5104 346.714 22.375 346.109 22.375C345.219 22.375 344.565 22.6693 344.148 23.2578C343.737 23.8464 343.531 24.6615 343.531 25.7031Z" fill="#869198"/>
</svg>
