<svg width="177" height="48" viewBox="0 0 177 48" fill="none" xmlns="http://www.w3.org/2000/svg">
<rect width="177" height="48" rx="8" fill="#1D6FB6"/>
<path fill-rule="evenodd" clip-rule="evenodd" d="M21.7128 18.2128C22.1426 17.7831 22.7255 17.5416 23.3333 17.5416H36.6666C37.2744 17.5416 37.8573 17.7831 38.2871 18.2128C38.7168 18.6426 38.9583 19.2255 38.9583 19.8333V21.5C38.9583 21.8451 38.6785 22.125 38.3333 22.125C37.836 22.125 37.3591 22.3225 37.0075 22.6741C36.6558 23.0258 36.4583 23.5027 36.4583 24C36.4583 24.4972 36.6558 24.9742 37.0075 25.3258C37.3591 25.6774 37.836 25.875 38.3333 25.875C38.6785 25.875 38.9583 26.1548 38.9583 26.5V28.1666C38.9583 28.7744 38.7168 29.3573 38.2871 29.7871C37.8573 30.2168 37.2744 30.4583 36.6666 30.4583H23.3333C22.7255 30.4583 22.1426 30.2168 21.7128 29.7871C21.2831 29.3573 21.0416 28.7744 21.0416 28.1666V26.5C21.0416 26.1548 21.3214 25.875 21.6666 25.875C22.1639 25.875 22.6408 25.6774 22.9925 25.3258C23.3441 24.9742 23.5416 24.4972 23.5416 24C23.5416 23.5027 23.3441 23.0258 22.9925 22.6741C22.6408 22.3225 22.1639 22.125 21.6666 22.125C21.3214 22.125 21.0416 21.8451 21.0416 21.5V19.8333C21.0416 19.2255 21.2831 18.6426 21.7128 18.2128ZM31.4583 29.2083V28.1666C31.4583 27.8214 31.1785 27.5416 30.8333 27.5416C30.4881 27.5416 30.2083 27.8214 30.2083 28.1666V29.2083H23.3333C23.057 29.2083 22.7921 29.0985 22.5967 28.9032C22.4014 28.7078 22.2916 28.4429 22.2916 28.1666V27.0618C22.8875 26.9402 23.4398 26.6462 23.8763 26.2097C24.4624 25.6236 24.7916 24.8288 24.7916 24C24.7916 23.1712 24.4624 22.3763 23.8763 21.7903C23.4398 21.3538 22.8875 21.0597 22.2916 20.9381V19.8333C22.2916 19.557 22.4014 19.2921 22.5967 19.0967C22.7921 18.9014 23.057 18.7916 23.3333 18.7916H30.2083V19.8333C30.2083 20.1785 30.4881 20.4583 30.8333 20.4583C31.1785 20.4583 31.4583 20.1785 31.4583 19.8333V18.7916H36.6666C36.9429 18.7916 37.2078 18.9014 37.4032 19.0967C37.5985 19.2921 37.7083 19.557 37.7083 19.8333V20.9381C37.1124 21.0597 36.5601 21.3538 36.1236 21.7903C35.5375 22.3763 35.2083 23.1712 35.2083 24C35.2083 24.8288 35.5375 25.6236 36.1236 26.2097C36.5601 26.6462 37.1124 26.9402 37.7083 27.0618V28.1666C37.7083 28.4429 37.5985 28.7078 37.4032 28.9032C37.2078 29.0985 36.9429 29.2083 36.6666 29.2083H31.4583ZM30.8333 22.5416C31.1785 22.5416 31.4583 22.8214 31.4583 23.1666V24.8333C31.4583 25.1785 31.1785 25.4583 30.8333 25.4583C30.4881 25.4583 30.2083 25.1785 30.2083 24.8333V23.1666C30.2083 22.8214 30.4881 22.5416 30.8333 22.5416Z" fill="white"/>
<path d="M58.1094 23.7969H62.375V29.5312C61.776 29.7292 61.1562 29.8828 60.5156 29.9922C59.875 30.1016 59.1562 30.1562 58.3594 30.1562C57.1979 30.1562 56.2135 29.9271 55.4062 29.4688C54.6042 29.0052 53.9948 28.3359 53.5781 27.4609C53.1615 26.5807 52.9531 25.5208 52.9531 24.2812C52.9531 23.0885 53.1849 22.0547 53.6484 21.1797C54.112 20.2995 54.7865 19.6198 55.6719 19.1406C56.5573 18.6562 57.6302 18.4141 58.8906 18.4141C59.5104 18.4141 60.1094 18.4766 60.6875 18.6016C61.2708 18.7214 61.8047 18.888 62.2891 19.1016L61.6328 20.6484C61.2474 20.4661 60.8151 20.3125 60.3359 20.1875C59.8568 20.0625 59.3594 20 58.8438 20C58.026 20 57.3203 20.1771 56.7266 20.5312C56.138 20.8854 55.6849 21.3854 55.3672 22.0312C55.0495 22.6719 54.8906 23.4297 54.8906 24.3047C54.8906 25.1536 55.0182 25.8984 55.2734 26.5391C55.5286 27.1797 55.9271 27.6797 56.4688 28.0391C57.0156 28.3932 57.7214 28.5703 58.5859 28.5703C59.0182 28.5703 59.3854 28.5469 59.6875 28.5C59.9896 28.4531 60.2682 28.401 60.5234 28.3438V25.3984H58.1094V23.7969ZM68.3672 21.1875C69.138 21.1875 69.7995 21.3464 70.3516 21.6641C70.9036 21.9818 71.3281 22.4323 71.625 23.0156C71.9219 23.599 72.0703 24.2969 72.0703 25.1094V26.0938H66.2969C66.3177 26.9323 66.5417 27.5781 66.9688 28.0312C67.401 28.4844 68.0052 28.7109 68.7812 28.7109C69.3333 28.7109 69.8281 28.6589 70.2656 28.5547C70.7083 28.4453 71.1641 28.2865 71.6328 28.0781V29.5703C71.2005 29.7734 70.7604 29.9219 70.3125 30.0156C69.8646 30.1094 69.3281 30.1562 68.7031 30.1562C67.8542 30.1562 67.1068 29.9922 66.4609 29.6641C65.8203 29.3307 65.3177 28.8359 64.9531 28.1797C64.5938 27.5234 64.4141 26.7083 64.4141 25.7344C64.4141 24.7656 64.5781 23.9427 64.9062 23.2656C65.2344 22.5885 65.6953 22.0729 66.2891 21.7188C66.8828 21.3646 67.5755 21.1875 68.3672 21.1875ZM68.3672 22.5703C67.7891 22.5703 67.3203 22.7578 66.9609 23.1328C66.6068 23.5078 66.3984 24.0573 66.3359 24.7812H70.2734C70.2682 24.349 70.1953 23.9661 70.0547 23.6328C69.9193 23.2995 69.7109 23.0391 69.4297 22.8516C69.1536 22.6641 68.7995 22.5703 68.3672 22.5703ZM78.5234 21.1875C78.6693 21.1875 78.8281 21.1953 79 21.2109C79.1719 21.2266 79.3203 21.2474 79.4453 21.2734L79.2734 22.9922C79.1641 22.9609 79.0286 22.9375 78.8672 22.9219C78.7109 22.9062 78.5703 22.8984 78.4453 22.8984C78.1172 22.8984 77.8047 22.9531 77.5078 23.0625C77.2109 23.1667 76.9479 23.3281 76.7188 23.5469C76.4896 23.7604 76.3099 24.0286 76.1797 24.3516C76.0495 24.6745 75.9844 25.0495 75.9844 25.4766V30H74.1406V21.3516H75.5781L75.8281 22.875H75.9141C76.0859 22.5677 76.2995 22.2865 76.5547 22.0312C76.8099 21.776 77.1016 21.5729 77.4297 21.4219C77.763 21.2656 78.1276 21.1875 78.5234 21.1875ZM84.4375 21.1875C85.5312 21.1875 86.3568 21.4297 86.9141 21.9141C87.4766 22.3984 87.7578 23.1536 87.7578 24.1797V30H86.4531L86.1016 28.7734H86.0391C85.7943 29.0859 85.5417 29.3438 85.2812 29.5469C85.0208 29.75 84.7188 29.901 84.375 30C84.0365 30.1042 83.6224 30.1562 83.1328 30.1562C82.6172 30.1562 82.1562 30.0625 81.75 29.875C81.3438 29.6823 81.0234 29.3906 80.7891 29C80.5547 28.6094 80.4375 28.1146 80.4375 27.5156C80.4375 26.625 80.7682 25.9557 81.4297 25.5078C82.0964 25.0599 83.1016 24.8125 84.4453 24.7656L85.9453 24.7109V24.2578C85.9453 23.6589 85.8047 23.2318 85.5234 22.9766C85.2474 22.7214 84.8568 22.5938 84.3516 22.5938C83.9193 22.5938 83.5 22.6562 83.0938 22.7812C82.6875 22.9062 82.2917 23.0599 81.9062 23.2422L81.3125 21.9453C81.7344 21.7214 82.2135 21.5391 82.75 21.3984C83.2917 21.2578 83.8542 21.1875 84.4375 21.1875ZM85.9375 25.8672L84.8203 25.9062C83.9036 25.9375 83.2604 26.0938 82.8906 26.375C82.5208 26.6562 82.3359 27.0417 82.3359 27.5312C82.3359 27.9583 82.4635 28.2708 82.7188 28.4688C82.974 28.6615 83.3099 28.7578 83.7266 28.7578C84.362 28.7578 84.888 28.5781 85.3047 28.2188C85.7266 27.8542 85.9375 27.3203 85.9375 26.6172V25.8672ZM94.7109 21.1875C94.8568 21.1875 95.0156 21.1953 95.1875 21.2109C95.3594 21.2266 95.5078 21.2474 95.6328 21.2734L95.4609 22.9922C95.3516 22.9609 95.2161 22.9375 95.0547 22.9219C94.8984 22.9062 94.7578 22.8984 94.6328 22.8984C94.3047 22.8984 93.9922 22.9531 93.6953 23.0625C93.3984 23.1667 93.1354 23.3281 92.9062 23.5469C92.6771 23.7604 92.4974 24.0286 92.3672 24.3516C92.237 24.6745 92.1719 25.0495 92.1719 25.4766V30H90.3281V21.3516H91.7656L92.0156 22.875H92.1016C92.2734 22.5677 92.487 22.2865 92.7422 22.0312C92.9974 21.776 93.2891 21.5729 93.6172 21.4219C93.9505 21.2656 94.3151 21.1875 94.7109 21.1875ZM104.875 30.1562C104.057 30.1562 103.349 29.9974 102.75 29.6797C102.151 29.362 101.69 28.875 101.367 28.2188C101.044 27.5625 100.883 26.7292 100.883 25.7188C100.883 24.6667 101.06 23.8073 101.414 23.1406C101.768 22.474 102.258 21.9818 102.883 21.6641C103.513 21.3464 104.234 21.1875 105.047 21.1875C105.562 21.1875 106.029 21.2396 106.445 21.3438C106.867 21.4427 107.224 21.5651 107.516 21.7109L106.969 23.1797C106.651 23.0495 106.326 22.9401 105.992 22.8516C105.659 22.763 105.339 22.7188 105.031 22.7188C104.526 22.7188 104.104 22.8307 103.766 23.0547C103.432 23.2786 103.182 23.612 103.016 24.0547C102.854 24.4974 102.773 25.0469 102.773 25.7031C102.773 26.3385 102.857 26.875 103.023 27.3125C103.19 27.7448 103.438 28.0729 103.766 28.2969C104.094 28.5156 104.497 28.625 104.977 28.625C105.451 28.625 105.875 28.5677 106.25 28.4531C106.625 28.3385 106.979 28.1901 107.312 28.0078V29.6016C106.984 29.7891 106.633 29.9271 106.258 30.0156C105.883 30.1094 105.422 30.1562 104.875 30.1562ZM117 25.6562C117 26.375 116.906 27.013 116.719 27.5703C116.531 28.1276 116.258 28.599 115.898 28.9844C115.539 29.3646 115.107 29.6562 114.602 29.8594C114.096 30.0573 113.526 30.1562 112.891 30.1562C112.297 30.1562 111.753 30.0573 111.258 29.8594C110.763 29.6562 110.333 29.3646 109.969 28.9844C109.609 28.599 109.331 28.1276 109.133 27.5703C108.935 27.013 108.836 26.375 108.836 25.6562C108.836 24.7031 109 23.8958 109.328 23.2344C109.661 22.5677 110.135 22.0599 110.75 21.7109C111.365 21.362 112.096 21.1875 112.945 21.1875C113.742 21.1875 114.445 21.362 115.055 21.7109C115.664 22.0599 116.141 22.5677 116.484 23.2344C116.828 23.901 117 24.7083 117 25.6562ZM110.727 25.6562C110.727 26.2865 110.802 26.8255 110.953 27.2734C111.109 27.7214 111.349 28.0651 111.672 28.3047C111.995 28.5391 112.411 28.6562 112.922 28.6562C113.432 28.6562 113.849 28.5391 114.172 28.3047C114.495 28.0651 114.732 27.7214 114.883 27.2734C115.034 26.8255 115.109 26.2865 115.109 25.6562C115.109 25.026 115.034 24.4922 114.883 24.0547C114.732 23.612 114.495 23.276 114.172 23.0469C113.849 22.8125 113.43 22.6953 112.914 22.6953C112.154 22.6953 111.599 22.9505 111.25 23.4609C110.901 23.9714 110.727 24.7031 110.727 25.6562ZM123.617 21.1875C124.591 21.1875 125.349 21.4401 125.891 21.9453C126.438 22.4453 126.711 23.25 126.711 24.3594V30H124.875V24.7031C124.875 24.0312 124.737 23.5286 124.461 23.1953C124.185 22.8568 123.758 22.6875 123.18 22.6875C122.341 22.6875 121.758 22.9453 121.43 23.4609C121.107 23.9766 120.945 24.724 120.945 25.7031V30H119.109V21.3516H120.539L120.797 22.5234H120.898C121.086 22.2214 121.318 21.974 121.594 21.7812C121.875 21.5833 122.188 21.4349 122.531 21.3359C122.88 21.237 123.242 21.1875 123.617 21.1875ZM131.258 30L127.969 21.3516H129.914L131.695 26.4297C131.81 26.7526 131.914 27.1016 132.008 27.4766C132.102 27.8516 132.167 28.1667 132.203 28.4219H132.266C132.302 28.1562 132.372 27.8385 132.477 27.4688C132.581 27.0938 132.688 26.7474 132.797 26.4297L134.578 21.3516H136.516L133.227 30H131.258ZM139.664 21.3516V30H137.828V21.3516H139.664ZM138.758 18.0391C139.039 18.0391 139.281 18.1146 139.484 18.2656C139.693 18.4167 139.797 18.6771 139.797 19.0469C139.797 19.4115 139.693 19.6719 139.484 19.8281C139.281 19.9792 139.039 20.0547 138.758 20.0547C138.466 20.0547 138.219 19.9792 138.016 19.8281C137.818 19.6719 137.719 19.4115 137.719 19.0469C137.719 18.6771 137.818 18.4167 138.016 18.2656C138.219 18.1146 138.466 18.0391 138.758 18.0391ZM145.516 28.6719C145.755 28.6719 145.992 28.651 146.227 28.6094C146.461 28.5625 146.674 28.5078 146.867 28.4453V29.8359C146.664 29.9245 146.401 30 146.078 30.0625C145.755 30.125 145.419 30.1562 145.07 30.1562C144.581 30.1562 144.141 30.0755 143.75 29.9141C143.359 29.7474 143.049 29.4635 142.82 29.0625C142.591 28.6615 142.477 28.1068 142.477 27.3984V22.75H141.297V21.9297L142.562 21.2812L143.164 19.4297H144.32V21.3516H146.797V22.75H144.32V27.375C144.32 27.8125 144.43 28.138 144.648 28.3516C144.867 28.5651 145.156 28.6719 145.516 28.6719ZM152.07 21.1875C152.841 21.1875 153.503 21.3464 154.055 21.6641C154.607 21.9818 155.031 22.4323 155.328 23.0156C155.625 23.599 155.773 24.2969 155.773 25.1094V26.0938H150C150.021 26.9323 150.245 27.5781 150.672 28.0312C151.104 28.4844 151.708 28.7109 152.484 28.7109C153.036 28.7109 153.531 28.6589 153.969 28.5547C154.411 28.4453 154.867 28.2865 155.336 28.0781V29.5703C154.904 29.7734 154.464 29.9219 154.016 30.0156C153.568 30.1094 153.031 30.1562 152.406 30.1562C151.557 30.1562 150.81 29.9922 150.164 29.6641C149.523 29.3307 149.021 28.8359 148.656 28.1797C148.297 27.5234 148.117 26.7083 148.117 25.7344C148.117 24.7656 148.281 23.9427 148.609 23.2656C148.938 22.5885 149.398 22.0729 149.992 21.7188C150.586 21.3646 151.279 21.1875 152.07 21.1875ZM152.07 22.5703C151.492 22.5703 151.023 22.7578 150.664 23.1328C150.31 23.5078 150.102 24.0573 150.039 24.7812H153.977C153.971 24.349 153.898 23.9661 153.758 23.6328C153.622 23.2995 153.414 23.0391 153.133 22.8516C152.857 22.6641 152.503 22.5703 152.07 22.5703Z" fill="#F9F9F9"/>
</svg>
