<svg width="560" height="40" viewBox="0 0 560 40" fill="none" xmlns="http://www.w3.org/2000/svg">
<rect width="40" height="40" rx="20" fill="#2D3136"/>
<rect x="6" y="6" width="28" height="28" rx="14" fill="#59B2FF"/>
<rect x="52" width="40" height="40" rx="20" fill="#2D3136"/>
<rect x="58" y="6" width="28" height="28" rx="14" fill="#6A59FF"/>
<rect x="104" width="40" height="40" rx="20" fill="#2D3136"/>
<rect x="110" y="6" width="28" height="28" rx="14" fill="#B259FF"/>
<rect x="156" width="40" height="40" rx="20" fill="#2D3136"/>
<rect x="162" y="6" width="28" height="28" rx="14" fill="#FF59F9"/>
<rect x="209" y="1" width="38" height="38" rx="19" fill="#2D3136"/>
<rect x="209" y="1" width="38" height="38" rx="19" stroke="#59B2FF" stroke-width="2"/>
<rect x="214" y="6" width="28" height="28" rx="14" fill="#FF598B"/>
<rect x="260" width="40" height="40" rx="20" fill="#2D3136"/>
<rect x="266" y="6" width="28" height="28" rx="14" fill="#FF5959"/>
<rect x="312" width="40" height="40" rx="20" fill="#2D3136"/>
<rect x="318" y="6" width="28" height="28" rx="14" fill="#FF8B59"/>
<rect x="364" width="40" height="40" rx="20" fill="#2D3136"/>
<rect x="370" y="6" width="28" height="28" rx="14" fill="#FFCD59"/>
<rect x="416" width="40" height="40" rx="20" fill="#2D3136"/>
<rect x="422" y="6" width="28" height="28" rx="14" fill="#E1FF59"/>
<rect x="468" width="40" height="40" rx="20" fill="#2D3136"/>
<rect x="474" y="6" width="28" height="28" rx="14" fill="#59FF91"/>
<rect x="520" width="40" height="40" rx="20" fill="#2D3136"/>
<rect x="526" y="6" width="28" height="28" rx="14" fill="#59FFF9"/>
</svg>
